<?xml version="1.0" encoding="utf-8"?>
<!-- Generator: Adobe Illustrator 23.0.2, SVG Export Plug-In . SVG Version: 6.00 Build 0)  -->
<svg version="1.1" id="Layer_1" xmlns="http://www.w3.org/2000/svg" xmlns:xlink="http://www.w3.org/1999/xlink" x="0px" y="0px"
	 viewBox="0 0 68 168" style="enable-background:new 0 0 68 168;" xml:space="preserve">
<style type="text/css">
	.st0{fill:#152c81;}
</style>
<g>
	<rect x="19.7" y="126.7" class="st0" width="4.8" height="29.4"/>
	<rect x="0.4" y="126.7" class="st0" width="1.6" height="29.4"/>
	<rect x="10" y="126.7" class="st0" width="3.2" height="29.4"/>
	<path class="st0" d="M2,69.3V42.6c-0.5,0.1-1.1,0.1-1.6,0.2v26.5L2,69.3z"/>
	<rect x="39" y="16.1" class="st0" width="8" height="140"/>
	<polygon class="st0" points="68.9,156 68.9,16.1 48.7,16.1 48.7,156 	"/>
	<path class="st0" d="M24.5,69.3V33.9c-1.5,1.2-3.1,2.3-4.8,3.3v32.1L24.5,69.3z"/>
	<path class="st0" d="M29.4,29.2V156h6.4V19C34.1,22.7,32,26.1,29.4,29.2z"/>
	<path class="st0" d="M13.3,69.3V40.1c-1,0.4-2.1,0.7-3.2,1v28.2L13.3,69.3z"/>
	<line class="st0" x1="47.1" y1="16.1" x2="48.7" y2="16.1"/>
	<line class="st0" x1="48.7" y1="156" x2="47.1" y2="156"/>
	<line class="st0" x1="47.1" y1="159.5" x2="48.7" y2="159.5"/>
</g>
</svg>
